<?xml version="1.0" standalone="no"?>
<!DOCTYPE svg PUBLIC "-//W3C//DTD SVG 20010904//EN"
 "http://www.w3.org/TR/2001/REC-SVG-20010904/DTD/svg10.dtd">
<svg version="1.0" xmlns="http://www.w3.org/2000/svg"
 width="239.000000pt" height="27.000000pt" viewBox="0 0 239.000000 27.000000"
 preserveAspectRatio="xMidYMid meet">
<metadata>
Created by potrace 1.10, written by Peter Selinger 2001-2011
</metadata>
<g transform="translate(0.000000,27.000000) scale(0.100000,-0.100000)"
fill="#000000" stroke="none">
<path d="M102 231 c-20 -12 -12 -166 8 -166 10 0 16 12 18 38 2 20 5 37 7 37
2 0 22 -19 44 -42 32 -35 42 -41 52 -31 10 10 7 19 -19 46 -39 40 -40 50 -5
75 19 14 24 24 19 37 -6 16 -12 13 -51 -25 l-45 -44 0 36 c0 40 -9 51 -28 39z"/>
<path d="M412 227 c-6 -7 -8 -40 -5 -80 5 -53 10 -70 25 -78 10 -5 23 -7 28
-4 15 10 12 35 -5 35 -12 0 -15 14 -15 64 0 65 -9 86 -28 63z"/>
<path d="M497 233 c-4 -3 -7 -39 -7 -79 0 -63 3 -75 20 -84 11 -6 25 -8 30 -5
13 8 13 35 0 35 -6 0 -10 26 -10 59 0 55 -16 91 -33 74z"/>
<path d="M1336 233 c-3 -4 -6 -39 -6 -79 0 -63 3 -75 20 -84 11 -6 25 -8 30
-5 13 8 13 35 0 35 -6 0 -10 28 -10 64 0 46 -4 65 -14 69 -8 3 -17 3 -20 0z"/>
<path d="M1906 233 c-3 -4 -6 -39 -6 -79 0 -62 3 -75 19 -84 21 -11 51 -4 51
11 0 5 -7 12 -15 15 -11 5 -15 22 -15 69 0 45 -4 64 -14 68 -8 3 -17 3 -20 0z"/>
<path d="M1985 230 c-4 -7 -3 -16 3 -22 14 -14 45 -2 40 15 -6 16 -34 21 -43
7z"/>
<path d="M282 174 c-33 -23 -28 -82 9 -103 22 -12 29 -12 55 0 23 11 30 22 32
50 2 21 -3 40 -10 47 -25 20 -62 23 -86 6z m56 -43 c2 -13 -1 -28 -7 -34 -17
-17 -45 15 -36 42 9 29 39 23 43 -8z"/>
<path d="M592 174 c-35 -24 -28 -84 12 -103 22 -10 34 -11 53 -2 29 13 21 33
-11 25 -14 -3 -27 1 -35 10 -12 14 -8 16 28 16 47 0 54 17 21 50 -24 24 -38
25 -68 4z m53 -23 c3 -5 1 -13 -5 -16 -15 -9 -43 3 -35 15 8 13 32 13 40 1z"/>
<path d="M722 174 c-33 -23 -31 -80 4 -96 20 -9 30 -9 46 1 17 11 19 10 16 -6
-2 -13 -13 -18 -38 -20 -19 -1 -39 -2 -44 -2 -24 -3 21 -31 49 -31 48 0 65 25
65 98 0 57 -11 85 -25 62 -4 -7 -12 -7 -25 0 -24 13 -21 13 -48 -6z m58 -29
c15 -18 6 -45 -15 -45 -18 0 -30 24 -21 45 7 19 20 19 36 0z"/>
<path d="M872 174 c-34 -23 -28 -84 10 -102 32 -15 78 -6 78 15 0 11 -7 13
-28 8 -20 -4 -33 -1 -42 10 -11 13 -7 15 29 15 34 0 41 3 41 19 0 20 -34 51
-55 51 -6 0 -21 -7 -33 -16z m58 -29 c0 -16 -35 -21 -44 -6 -8 12 4 21 26 21
10 0 18 -7 18 -15z"/>
<path d="M985 179 c-8 -12 23 -101 39 -111 13 -8 36 9 36 28 0 25 20 25 29 1
20 -51 39 -43 65 26 13 35 15 52 7 60 -7 7 -16 -2 -29 -34 l-19 -44 -7 32 c-4
17 -14 37 -22 44 -11 9 -17 5 -30 -27 l-17 -39 -13 32 c-15 36 -30 48 -39 32z"/>
<path d="M1212 180 c-32 -13 -18 -31 18 -23 23 4 30 2 30 -10 0 -10 -11 -17
-32 -19 -25 -2 -34 -8 -36 -25 -4 -28 30 -48 57 -33 14 7 22 7 26 0 4 -6 11
-8 16 -5 11 7 12 85 1 102 -11 17 -53 24 -80 13z m52 -75 c-7 -16 -30 -20 -38
-6 -7 11 4 21 25 21 12 0 16 -5 13 -15z"/>
<path d="M1432 179 c-32 -12 -18 -30 18 -22 23 4 30 2 30 -10 0 -10 -11 -17
-32 -19 -25 -2 -34 -8 -36 -25 -4 -28 30 -48 57 -33 14 7 22 7 26 0 13 -20 25
2 25 45 0 34 -5 47 -22 59 -25 18 -33 19 -66 5z"/>
<path d="M1640 177 c-31 -15 -40 -76 -15 -97 24 -20 75 -17 91 5 42 57 -13
123 -76 92z m45 -53 c0 -19 -5 -29 -15 -29 -16 0 -25 28 -16 51 10 25 31 10
31 -22z"/>
<path d="M1767 184 c-10 -11 -8 -112 2 -118 14 -9 29 16 33 54 5 53 32 46 38
-10 7 -61 24 -57 28 6 4 61 -14 84 -52 66 -15 -6 -27 -7 -33 -1 -5 5 -12 6
-16 3z"/>
<path d="M1990 175 c-13 -16 -11 -83 3 -102 17 -23 27 -3 27 52 0 57 -10 74
-30 50z"/>
<path d="M2054 176 c-3 -7 -4 -35 -2 -62 2 -36 7 -49 18 -49 10 0 17 14 20 45
3 31 10 45 20 45 10 0 17 -14 20 -45 6 -56 33 -64 38 -11 7 68 -18 103 -58 81
-13 -7 -21 -7 -25 0 -9 14 -25 12 -31 -4z"/>
<path d="M2230 182 c-40 -15 -52 -68 -22 -95 29 -26 92 -27 92 -2 0 11 -9 14
-31 13 -19 -2 -34 2 -36 10 -3 8 8 12 37 12 38 0 41 2 35 23 -4 12 -10 25 -14
28 -10 11 -45 18 -61 11z m40 -37 c0 -8 -9 -15 -20 -15 -11 0 -20 7 -20 15 0
8 9 15 20 15 11 0 20 -7 20 -15z"/>
<path d="M1544 99 c-3 -6 0 -17 8 -25 13 -13 16 -13 27 0 7 8 10 20 6 26 -8
13 -32 13 -41 -1z"/>
</g>
</svg>
