<?xml version="1.0" encoding="UTF-8"?>
<svg version="1.1" xmlns="http://www.w3.org/2000/svg" width="239" height="27">
<path d="M0 0 C1.65 0 3.3 0 5 0 C5 4.62 5 9.24 5 14 C5.99 14 6.98 14 8 14 C8 9.71 8 5.42 8 1 C9.65 0.67 11.3 0.34 13 0 C13.04898438 0.92683594 13.09796875 1.85367187 13.1484375 2.80859375 C13.22320312 4.00613281 13.29796875 5.20367187 13.375 6.4375 C13.44460937 7.63246094 13.51421875 8.82742188 13.5859375 10.05859375 C13.72257812 11.02925781 13.85921875 11.99992188 14 13 C14.66 13.33 15.32 13.66 16 14 C15.896875 13.0925 15.79375 12.185 15.6875 11.25 C16 8 16 8 18.1875 5.5625 C21 4 21 4 23.625 4.0625 C26.0886729 5.03500246 27.32731628 5.97517234 29 8 C29.66 7.01 30.32 6.02 31 5 C33.05859375 4.453125 33.05859375 4.453125 35.4375 4.25 C36.21996094 4.17265625 37.00242188 4.0953125 37.80859375 4.015625 C40 4 40 4 43 5 C43.10823773 7.24893954 43.18569645 9.49937575 43.25 11.75 C43.29640625 13.00296875 43.3428125 14.2559375 43.390625 15.546875 C43 19 43 19 41.28125 21.46875 C38.53726015 23.3106062 37.45703818 23.31594791 34.25 22.75 C33.45078125 22.62109375 32.6515625 22.4921875 31.828125 22.359375 C31.22484375 22.24078125 30.6215625 22.1221875 30 22 C30 20.02 30 18.04 30 16 C29.67 16 29.34 16 29 16 C28.34 16.66 27.68 17.32 27 18 C22.66356399 18.31537716 20.67346771 18.44897847 17 16 C16.67 16.66 16.34 17.32 16 18 C13 18 10 18 7 18 C5.7315625 18.061875 5.7315625 18.061875 4.4375 18.125 C2 18 2 18 0 16 C-0.14507695 13.25514407 -0.18652423 10.61519457 -0.125 7.875 C-0.11146484 6.74384766 -0.11146484 6.74384766 -0.09765625 5.58984375 C-0.0740687 3.72642746 -0.03819719 1.86317407 0 0 Z M35 9 C34.67 9.99 34.34 10.98 34 12 C35.32 12.33 36.64 12.66 38 13 C37.67 11.68 37.34 10.36 37 9 C36.34 9 35.68 9 35 9 Z " fill="#54514F" transform="translate(40,3)"/>
<path d="M0 0 C2.96498137 1.24551591 2.96498137 1.24551591 5.4375 0.0625 C5.97375 -0.30875 6.51 -0.68 7.0625 -1.0625 C8.3825 0.2575 9.7025 1.5775 11.0625 2.9375 C12.3825 1.6175 13.7025 0.2975 15.0625 -1.0625 C16.3825 0.2575 17.7025 1.5775 19.0625 2.9375 C20.3825 1.6175 21.7025 0.2975 23.0625 -1.0625 C24.1796875 0.609375 24.1796875 0.609375 25.0625 2.9375 C24.3828125 5.515625 24.3828125 5.515625 23.1875 8.1875 C22.79820313 9.07953125 22.40890625 9.9715625 22.0078125 10.890625 C21.69585937 11.56609375 21.38390625 12.2415625 21.0625 12.9375 C18.6875 13.125 18.6875 13.125 16.0625 12.9375 C15.4025 11.9475 14.7425 10.9575 14.0625 9.9375 C13.0725 11.4225 13.0725 11.4225 12.0625 12.9375 C10.7425 12.9375 9.4225 12.9375 8.0625 12.9375 C7.0725 10.9575 6.0825 8.9775 5.0625 6.9375 C4.4025 8.9175 3.7425 10.8975 3.0625 12.9375 C1.62594146 13.01881463 0.1880517 13.07683559 -1.25 13.125 C-2.45076172 13.17720703 -2.45076172 13.17720703 -3.67578125 13.23046875 C-5.9375 12.9375 -5.9375 12.9375 -7.70703125 11.64453125 C-9.75086266 8.80912069 -9.29802525 6.30240235 -8.9375 2.9375 C-6.50589117 -0.5362269 -4.05809454 -1.46782143 0 0 Z " fill="#444240" transform="translate(92.9375,8.0625)"/>
<path d="M0 0 C3.27725968 0.05958654 3.94187595 0.22850076 6.625 2.375 C7.12 3.035 7.615 3.695 8.125 4.375 C8.516875 3.900625 8.90875 3.42625 9.3125 2.9375 C11.64258675 0.92880452 13.05572068 0.52115616 16.125 0.375 C18.875 1.5 18.875 1.5 21.125 3.375 C22.7952088 7.49484838 21.71416747 10.35534111 20.125 14.375 C12.61730769 14.74423077 12.61730769 14.74423077 10.125 12.875 C9.795 12.38 9.465 11.885 9.125 11.375 C8.135 12.86 8.135 12.86 7.125 14.375 C5.475 14.045 3.825 13.715 2.125 13.375 C1.795 11.065 1.465 8.755 1.125 6.375 C0.795 8.685 0.465 10.995 0.125 13.375 C-1.53114657 13.75718767 -3.19957024 14.08895102 -4.875 14.375 C-6.61349628 12.63650372 -6.04716296 10.2963363 -6.0625 7.9375 C-6.07667969 6.94878906 -6.09085938 5.96007812 -6.10546875 4.94140625 C-5.71033928 0.54140518 -4.25490129 0.41176464 0 0 Z " fill="#F9AFA6" transform="translate(209.875,6.625)"/>
<path d="M0 0 C1.32 0 2.64 0 4 0 C4.04898438 0.92683594 4.09796875 1.85367187 4.1484375 2.80859375 C4.22320312 4.00613281 4.29796875 5.20367187 4.375 6.4375 C4.47941406 8.22994141 4.47941406 8.22994141 4.5859375 10.05859375 C4.72257813 11.02925781 4.85921875 11.99992188 5 13 C5.66 13.33 6.32 13.66 7 14 C7.93423645 10.98968256 8.04449911 10.13349732 7 7 C7.33 6.34 7.66 5.68 8 5 C11.29420848 4.25414148 13.98566478 3.78068428 17.3125 4.5 C19.9461593 6.84103049 20.25553194 9.64989374 21 13 C21.99 12.67 22.98 12.34 24 12 C24.66 12.33 25.32 12.66 26 13 C26 14.65 26 16.3 26 18 C19.66666667 18 13.33333333 18 7 18 C6.01 18.04125 5.02 18.0825 4 18.125 C1 18 1 18 -1 16 C-1.17163731 13.43707683 -1.23264558 10.99654143 -1.1875 8.4375 C-1.18685547 7.73947266 -1.18621094 7.04144531 -1.18554688 6.32226562 C-1.14031158 1.14031158 -1.14031158 1.14031158 0 0 Z " fill="#76736F" transform="translate(133,3)"/>
<path d="M0 0 C1.2065625 0.0309375 1.2065625 0.0309375 2.4375 0.0625 C2.4375 1.7125 2.4375 3.3625 2.4375 5.0625 C3.159375 4.2375 3.88125 3.4125 4.625 2.5625 C7.4375 0.0625 7.4375 0.0625 10.25 -0.25 C10.971875 -0.146875 11.69375 -0.04375 12.4375 0.0625 C11.90680939 3.88347239 10.94048434 6.12421403 8.4375 9.0625 C9.283125 9.990625 10.12875 10.91875 11 11.875 C12.44140625 13.45703125 12.44140625 13.45703125 13.4375 15.0625 C13.1075 16.0525 12.7775 17.0425 12.4375 18.0625 C8.12357774 17.5831753 6.27180453 16.3167015 3.4375 13.0625 C3.1075 14.7125 2.7775 16.3625 2.4375 18.0625 C0.77138095 18.105221 -0.89632885 18.10313832 -2.5625 18.0625 C-4.38366003 16.24133997 -3.6948508 13.75578236 -3.69921875 11.3359375 C-3.69535156 10.58570313 -3.69148437 9.83546875 -3.6875 9.0625 C-3.69136719 8.31226563 -3.69523438 7.56203125 -3.69921875 6.7890625 C-3.68712645 0.08992991 -3.68712645 0.08992991 0 0 Z " fill="#64615F" transform="translate(11.5625,2.9375)"/>
<path d="M0 0 C1.65 0.33 3.3 0.66 5 1 C5 6.94 5 12.88 5 19 C1.04 19 -2.92 19 -7 19 C-9.02789118 14.94421765 -9.24682223 13.26484474 -9.1875 8.875 C-9.18105469 7.82054687 -9.17460937 6.76609375 -9.16796875 5.6796875 C-9 3 -9 3 -8 1 C-6.35 1.33 -4.7 1.66 -3 2 C-3 6.29 -3 10.58 -3 15 C-2.01 15 -1.02 15 0 15 C0.02708567 13.39592672 0.04643483 11.7917215 0.0625 10.1875 C0.07410156 9.29417969 0.08570313 8.40085937 0.09765625 7.48046875 C0.11009967 4.86586209 0.11009967 4.86586209 -1 2 C-0.67 1.34 -0.34 0.68 0 0 Z " fill="#F5A297" transform="translate(198,2)"/>
<path d="M0 0 C1.65 0 3.3 0 5 0 C5 4.62 5 9.24 5 14 C5.99 14 6.98 14 8 14 C8 9.71 8 5.42 8 1 C9.65 0.67 11.3 0.34 13 0 C13.06058594 0.89203125 13.12117188 1.7840625 13.18359375 2.703125 C13.26738281 3.87359375 13.35117187 5.0440625 13.4375 6.25 C13.51871094 7.41015625 13.59992187 8.5703125 13.68359375 9.765625 C13.93247787 12.30977376 14.28114942 14.55953248 15 17 C13.865625 16.979375 12.73125 16.95875 11.5625 16.9375 C8.18424326 16.58422523 8.18424326 16.58422523 7 18 C4.5625 18.1875 4.5625 18.1875 2 18 C0 16 0 16 -0.1953125 12.3046875 C-0.182009 10.82799892 -0.15814835 9.35137642 -0.125 7.875 C-0.11146484 6.74384766 -0.11146484 6.74384766 -0.09765625 5.58984375 C-0.0740687 3.72642746 -0.03819719 1.86317407 0 0 Z " fill="#797471" transform="translate(40,3)"/>
<path d="M0 0 C2.95822054 1.26172171 2.95822054 1.26172171 5.3125 0 C5.89 -0.350625 6.4675 -0.70125 7.0625 -1.0625 C7.7225 -0.7325 8.3825 -0.4025 9.0625 -0.0625 C8.7325 0.5975 8.4025 1.2575 8.0625 1.9375 C7.0725 1.6075 6.0825 1.2775 5.0625 0.9375 C5.0625 1.5975 5.0625 2.2575 5.0625 2.9375 C5.7225 3.2675 6.3825 3.5975 7.0625 3.9375 C6.0725 5.4225 6.0725 5.4225 5.0625 6.9375 C4.36085358 8.92549818 3.68877128 10.92448517 3.0625 12.9375 C1.62594146 13.01881463 0.1880517 13.07683559 -1.25 13.125 C-2.45076172 13.17720703 -2.45076172 13.17720703 -3.67578125 13.23046875 C-5.9375 12.9375 -5.9375 12.9375 -7.70703125 11.64453125 C-9.75086266 8.80912069 -9.29802525 6.30240235 -8.9375 2.9375 C-6.50589117 -0.5362269 -4.05809454 -1.46782143 0 0 Z " fill="#73716D" transform="translate(92.9375,8.0625)"/>
<path d="M0 0 C2.71470711 1.04411812 4.44452483 1.79689704 6.4375 3.9375 C6.75 7.0625 6.75 7.0625 6.4375 9.9375 C6.1075 10.2675 5.7775 10.5975 5.4375 10.9375 C4.4475 12.4225 4.4475 12.4225 3.4375 13.9375 C-0.90836828 14.33257893 -2.88253497 14.39081002 -6.5625 11.9375 C-6.8925 12.5975 -7.2225 13.2575 -7.5625 13.9375 C-9.5425 13.9375 -11.5225 13.9375 -13.5625 13.9375 C-13.8925 13.2775 -14.2225 12.6175 -14.5625 11.9375 C-11.5925 12.4325 -11.5925 12.4325 -8.5625 12.9375 C-8.54832031 12.33421875 -8.53414062 11.7309375 -8.51953125 11.109375 C-8.13112179 4.60089208 -8.13112179 4.60089208 -5.3125 1.3125 C-2.5625 -0.0625 -2.5625 -0.0625 0 0 Z " fill="#3C3936" transform="translate(63.5625,7.0625)"/>
<path d="M0 0 C2 2 2 2 2.23046875 4.34765625 C2.20919922 5.69150391 2.20919922 5.69150391 2.1875 7.0625 C2.17783203 8.41021484 2.17783203 8.41021484 2.16796875 9.78515625 C2 12 2 12 1 13 C-0.64230364 13.1245486 -2.29052276 13.17568524 -3.9375 13.1875 C-4.83339844 13.20167969 -5.72929688 13.21585938 -6.65234375 13.23046875 C-9 13 -9 13 -11 11 C-11.1875 8.4375 -11.1875 8.4375 -11 6 C-10.67 5.67 -10.34 5.34 -10 5 C-9.95936168 3.33382885 -9.957279 1.66611905 -10 0 C-6.4195345 -1.2393919 -3.65498696 -0.87401862 0 0 Z M-6 8 C-5.34 8.66 -4.68 9.32 -4 10 C-4 9.34 -4 8.68 -4 8 C-4.66 8 -5.32 8 -6 8 Z " fill="#3B3937" transform="translate(129,8)"/>
<path d="M0 0 C1.97265625 0.265625 1.97265625 0.265625 4.97265625 2.265625 C5.265625 5.0859375 5.265625 5.0859375 5.16015625 8.390625 C5.13308594 9.48632812 5.10601562 10.58203125 5.078125 11.7109375 C5.04332031 12.55398437 5.00851563 13.39703125 4.97265625 14.265625 C3.32265625 13.935625 1.67265625 13.605625 -0.02734375 13.265625 C-0.35734375 10.955625 -0.68734375 8.645625 -1.02734375 6.265625 C-1.35734375 8.575625 -1.68734375 10.885625 -2.02734375 13.265625 C-3.68349032 13.64781267 -5.35191399 13.97957602 -7.02734375 14.265625 C-8.76584003 12.52712872 -8.19950671 10.1869613 -8.21484375 7.828125 C-8.22902344 6.83941406 -8.24320313 5.85070312 -8.2578125 4.83203125 C-7.7810327 -0.47719465 -4.58826646 0.0343048 0 0 Z " fill="#FA7C78" transform="translate(212.02734375,6.734375)"/>
<path d="M0 0 C2 3 2 3 1.75 6.5625 C1 10 1 10 -1 12 C-7.96019496 12.55239643 -7.96019496 12.55239643 -11 10.9375 C-12.58433618 7.86784865 -12.36248449 5.38318857 -12 2 C-8.66150752 -2.76927497 -4.91791042 -2.09272784 0 0 Z M-6 3 C-6 4.65 -6 6.3 -6 8 C-5.34 8 -4.68 8 -4 8 C-4 6.35 -4 4.7 -4 3 C-4.66 3 -5.32 3 -6 3 Z " fill="#F87A74" transform="translate(172,9)"/>
<path d="M0 0 C1.7421875 1.16015625 1.7421875 1.16015625 3 3 C3.29296875 5.69921875 3.29296875 5.69921875 3.1875 8.6875 C3.16042969 9.68136719 3.13335937 10.67523438 3.10546875 11.69921875 C3.07066406 12.45847656 3.03585938 13.21773437 3 14 C1.35 14 -0.3 14 -2 14 C-2.33 11.36 -2.66 8.72 -3 6 C-3.33 6 -3.66 6 -4 6 C-4.33 8.64 -4.66 11.28 -5 14 C-6.65 14 -8.3 14 -10 14 C-10 9.71 -10 5.42 -10 1 C-6.88450128 -0.55774936 -3.3955612 -0.56480622 0 0 Z " fill="#F8968C" transform="translate(185,7)"/>
<path d="M0 0 C1.9375 1.625 1.9375 1.625 3 4 C2.67272727 10.32727273 2.67272727 10.32727273 0 13 C-7.07368421 13.67368421 -7.07368421 13.67368421 -10.0625 11.5 C-11.5314021 7.58292774 -10.98583102 5.07476824 -10 1 C-6.93538184 -1.83760941 -3.80951956 -1.13475051 0 0 Z M-5 4 C-5.33 5.32 -5.66 6.64 -6 8 C-5.01 8.33 -4.02 8.66 -3 9 C-3 7.35 -3 5.7 -3 4 C-3.66 4 -4.32 4 -5 4 Z " fill="#383534" transform="translate(36,8)"/>
<path d="M0 0 C3.3 0 6.6 0 10 0 C10.66 2.31 11.32 4.62 12 7 C12.99 6.67 13.98 6.34 15 6 C15.66 6.33 16.32 6.66 17 7 C17 8.65 17 10.3 17 12 C12.91281305 12.24042276 9.82320557 11.42258812 6 10 C6 8.68 6 7.36 6 6 C4.68 6.33 3.36 6.66 2 7 C2 6.34 2 5.68 2 5 C3.32 5 4.64 5 6 5 C6 4.01 6 3.02 6 2 C4.02 2.33 2.04 2.66 0 3 C0 2.01 0 1.02 0 0 Z " fill="#131111" transform="translate(142,9)"/>
<path d="M0 0 C1.65 0 3.3 0 5 0 C5.91397824 5.68697571 5.91397824 10.31302429 5 16 C3.0625 16.5625 3.0625 16.5625 1 17 C0 16 0 16 -0.09765625 12.40234375 C-0.0909822 10.91403133 -0.07902183 9.42573568 -0.0625 7.9375 C-0.05798828 7.17888672 -0.05347656 6.42027344 -0.04882812 5.63867188 C-0.0370068 3.75908129 -0.01907078 1.87953101 0 0 Z " fill="#383737" transform="translate(8,4)"/>
<path d="M0 0 C1.875 0.125 1.875 0.125 4 1 C5.125 3.9375 5.125 3.9375 6 7 C6.66 7.66 7.32 8.32 8 9 C4.64672361 11.23551759 4.09256343 11.17283528 0.3125 10.625 C-0.49574219 10.51414062 -1.30398437 10.40328125 -2.13671875 10.2890625 C-2.75160156 10.19367187 -3.36648437 10.09828125 -4 10 C-4 7.36 -4 4.72 -4 2 C-2.68 2 -1.36 2 0 2 C0 1.34 0 0.68 0 0 Z " fill="#827F7C" transform="translate(74,15)"/>
<path d="M0 0 C1.32 0 2.64 0 4 0 C4.05402274 2.10388569 4.09280256 4.20816714 4.125 6.3125 C4.14820313 7.48425781 4.17140625 8.65601563 4.1953125 9.86328125 C4 13 4 13 2 16 C1.01 16 0.02 16 -1 16 C-1.02685095 13.52076199 -1.04676547 11.0418116 -1.0625 8.5625 C-1.07506836 7.50192383 -1.07506836 7.50192383 -1.08789062 6.41992188 C-1.09653588 4.61306441 -1.05220011 2.80612397 -1 1 C-0.67 0.67 -0.34 0.34 0 0 Z " fill="#3C3A36" transform="translate(133,3)"/>
<path d="M0 0 C1.32 0 2.64 0 4 0 C4.06058594 0.89203125 4.12117188 1.7840625 4.18359375 2.703125 C4.26738281 3.87359375 4.35117187 5.0440625 4.4375 6.25 C4.51871094 7.41015625 4.59992187 8.5703125 4.68359375 9.765625 C4.93247787 12.30977376 5.28114942 14.55953248 6 17 C4.02 16.67 2.04 16.34 0 16 C0 10.72 0 5.44 0 0 Z " fill="#1B1918" transform="translate(49,3)"/>
<path d="M0 0 C-1.32 1.32 -2.64 2.64 -4 4 C-2.68 4.33 -1.36 4.66 0 5 C-0.99 5 -1.98 5 -3 5 C-3 5.66 -3 6.32 -3 7 C-0.36 7 2.28 7 5 7 C4.67 8.32 4.34 9.64 4 11 C2.54207116 11.05399736 1.08357288 11.09279177 -0.375 11.125 C-1.18710938 11.14820313 -1.99921875 11.17140625 -2.8359375 11.1953125 C-5 11 -5 11 -7 9 C-7.375 5.5625 -7.375 5.5625 -7 2 C-4.37226805 -0.89956629 -3.79438356 -1.26479452 0 0 Z " fill="#534F4C" transform="translate(92,10)"/>
<path d="M0 0 C1.32 0 2.64 0 4 0 C4.02693575 2.12493141 4.04636628 4.24995912 4.0625 6.375 C4.07410156 7.55835938 4.08570313 8.74171875 4.09765625 9.9609375 C4 13 4 13 3 15 C1.68 14.67 0.36 14.34 -1 14 C-1.02694851 12.04174127 -1.04637218 10.08337774 -1.0625 8.125 C-1.07410156 7.03445312 -1.08570313 5.94390625 -1.09765625 4.8203125 C-1 2 -1 2 0 0 Z " fill="#FB7B77" transform="translate(190,3)"/>
<path d="M0 0 C1.32 0.33 2.64 0.66 4 1 C3.67 1.66 3.34 2.32 3 3 C6.465 2.505 6.465 2.505 10 2 C10 2.66 10 3.32 10 4 C7.69 4 5.38 4 3 4 C3 4.66 3 5.32 3 6 C5.64 6 8.28 6 11 6 C10.67 7.32 10.34 8.64 10 10 C3.9453125 10.1953125 3.9453125 10.1953125 2 10 C0 8 0 8 -0.1953125 6.0546875 C-0.13020833 4.03645833 -0.06510417 2.01822917 0 0 Z " fill="#FA5B57" transform="translate(220,11)"/>
<path d="M0 0 C2.31 0 4.62 0 7 0 C7 3.96 7 7.92 7 12 C5.35 11.67 3.7 11.34 2 11 C2 8.03 2 5.06 2 2 C1.34 2 0.68 2 0 2 C0 1.34 0 0.68 0 0 Z " fill="#F9776F" transform="translate(210,9)"/>
<path d="M0 0 C2.86425265 0.90817767 4.50676521 1.60448856 6.5625 3.8125 C6.8125 7 6.8125 7 6.5625 9.8125 C3.5925 9.8125 0.6225 9.8125 -2.4375 9.8125 C-2.4375 9.1525 -2.4375 8.4925 -2.4375 7.8125 C-0.4575 7.8125 1.5225 7.8125 3.5625 7.8125 C3.5625 7.1525 3.5625 6.4925 3.5625 5.8125 C1.2525 6.1425 -1.0575 6.4725 -3.4375 6.8125 C-2.7775 5.4925 -2.1175 4.1725 -1.4375 2.8125 C-2.7575 2.4825 -4.0775 2.1525 -5.4375 1.8125 C-2.4375 -0.1875 -2.4375 -0.1875 0 0 Z " fill="#878380" transform="translate(63.4375,7.1875)"/>
<path d="M0 0 C0 2.31 0 4.62 0 7 C-0.33 6.34 -0.66 5.68 -1 5 C-1.33 5.66 -1.66 6.32 -2 7 C-2.99 7 -3.98 7 -5 7 C-5 7.66 -5 8.32 -5 9 C-4.071875 8.79375 -3.14375 8.5875 -2.1875 8.375 C1 8 1 8 4 10 C2.37536158 10.05395478 0.75021459 10.09277195 -0.875 10.125 C-1.77992187 10.14820313 -2.68484375 10.17140625 -3.6171875 10.1953125 C-6 10 -6 10 -8 8 C-8.20872719 5.21697081 -8.25640898 3.51281795 -7 1 C-4 0 -4 0 0 0 Z " fill="#787571" transform="translate(126,11)"/>
<path d="M0 0 C0.33 0.66 0.66 1.32 1 2 C-0.32 1.67 -1.64 1.34 -3 1 C-3 3.31 -3 5.62 -3 8 C-3.33 8 -3.66 8 -4 8 C-4 6.35 -4 4.7 -4 3 C-4.66 3 -5.32 3 -6 3 C-6 4.65 -6 6.3 -6 8 C-6.33 8 -6.66 8 -7 8 C-7.33 6.02 -7.66 4.04 -8 2 C-8.99 2.33 -9.98 2.66 -11 3 C-11 4.98 -11 6.96 -11 9 C-11.33 9 -11.66 9 -12 9 C-12.36658354 2.52369077 -12.36658354 2.52369077 -10.6875 0.125 C-6.63272861 -2.57818093 -4.29206169 -1.77280809 0 0 Z " fill="#F9B0A7" transform="translate(172,9)"/>
<path d="M0 0 C0.33 0 0.66 0 1 0 C1 4.29 1 8.58 1 13 C2.32 13 3.64 13 5 13 C5.33 14.32 5.66 15.64 6 17 C3.03 17 0.06 17 -3 17 C-3.33 16.01 -3.66 15.02 -4 14 C-3.01 14 -2.02 14 -1 14 C-0.67 9.38 -0.34 4.76 0 0 Z " fill="#F7AAA0" transform="translate(194,4)"/>
<path d="M0 0 C0.99 0 1.98 0 3 0 C3 4.62 3 9.24 3 14 C2.01 13.67 1.02 13.34 0 13 C-0.19551338 11.39679026 -0.38111983 9.79237014 -0.5625 8.1875 C-0.71912109 6.84751953 -0.71912109 6.84751953 -0.87890625 5.48046875 C-1 3 -1 3 0 0 Z " fill="#050404" transform="translate(79,9)"/>
<path d="M0 0 C0.99 0 1.98 0 3 0 C3.02693575 2.12493141 3.04636628 4.24995912 3.0625 6.375 C3.07410156 7.55835938 3.08570313 8.74171875 3.09765625 9.9609375 C3 13 3 13 2 15 C1.34 15 0.68 15 0 15 C0 10.05 0 5.1 0 0 Z " fill="#020102" transform="translate(41,4)"/>
<path d="M0 0 C0.99 0 1.98 0 3 0 C3 3.63 3 7.26 3 11 C2.01 11 1.02 11 0 11 C-1.16461426 7.50615721 -1.13568319 4.66344611 -1 1 C-0.67 0.67 -0.34 0.34 0 0 Z " fill="#FA5E5C" transform="translate(199,9)"/>
<path d="M0 0 C0 0.33 0 0.66 0 1 C-1.98 1 -3.96 1 -6 1 C-6 1.66 -6 2.32 -6 3 C-5.01 3.33 -4.02 3.66 -3 4 C-3.99 4.495 -3.99 4.495 -5 5 C-5.99 6.485 -5.99 6.485 -7 8 C-7.33 7.01 -7.66 6.02 -8 5 C-8.66 5 -9.32 5 -10 5 C-10.33 6.32 -10.66 7.64 -11 9 C-10.51461245 1.47649301 -10.51461245 1.47649301 -8.3125 -0.5625 C-5.32684055 -1.12735449 -2.9431585 -0.66889966 0 0 Z " fill="#74706B" transform="translate(36,8)"/>
<path d="M0 0 C0.66 1.32 1.32 2.64 2 4 C2.99 3.67 3.98 3.34 5 3 C5.66 3.33 6.32 3.66 7 4 C7 5.65 7 7.3 7 9 C2.25 9.125 2.25 9.125 0 8 C0 5.36 0 2.72 0 0 Z " fill="#F7ABA2" transform="translate(152,12)"/>
<path d="M0 0 C1.32 0.33 2.64 0.66 4 1 C3.67 4.3 3.34 7.6 3 11 C2.01 11 1.02 11 0 11 C0 7.37 0 3.74 0 0 Z " fill="#FB5757" transform="translate(176,9)"/>
<path d="M0 0 C-1.32 1.32 -2.64 2.64 -4 4 C-2.68 4.33 -1.36 4.66 0 5 C-0.99 5 -1.98 5 -3 5 C-3 5.99 -3 6.98 -3 8 C-4.32 8 -5.64 8 -7 8 C-7.25 5.1875 -7.25 5.1875 -7 2 C-4.34311663 -0.84011671 -3.7870049 -1.26233497 0 0 Z " fill="#070606" transform="translate(92,10)"/>
<path d="M0 0 C1.91015625 0.23046875 1.91015625 0.23046875 3.91015625 2.23046875 C1.93015625 2.23046875 -0.04984375 2.23046875 -2.08984375 2.23046875 C-2.08984375 2.89046875 -2.08984375 3.55046875 -2.08984375 4.23046875 C-1.42984375 4.56046875 -0.76984375 4.89046875 -0.08984375 5.23046875 C-0.41984375 5.56046875 -0.74984375 5.89046875 -1.08984375 6.23046875 C-1.45745106 8.55864839 -1.79225956 10.89230725 -2.08984375 13.23046875 C-2.41984375 13.23046875 -2.74984375 13.23046875 -3.08984375 13.23046875 C-3.27160156 12.18246094 -3.27160156 12.18246094 -3.45703125 11.11328125 C-3.62460938 10.20320313 -3.7921875 9.293125 -3.96484375 8.35546875 C-4.12726563 7.45054688 -4.2896875 6.545625 -4.45703125 5.61328125 C-4.92029078 3.06540887 -4.92029078 3.06540887 -7.08984375 1.23046875 C-5.19495423 -0.66442077 -2.51845229 0.05027763 0 0 Z " fill="#F8BAB2" transform="translate(212.08984375,6.76953125)"/>
<path d="M0 0 C0.33 0 0.66 0 1 0 C0.67 2.31 0.34 4.62 0 7 C-1.98 7 -3.96 7 -6 7 C-6.33 6.34 -6.66 5.68 -7 5 C-5.75 3.4375 -5.75 3.4375 -4 2 C-1.8125 2.3125 -1.8125 2.3125 0 3 C0 2.01 0 1.02 0 0 Z " fill="#615C58" transform="translate(140,14)"/>
<path d="M0 0 C0 0.33 0 0.66 0 1 C-1.093125 1.309375 -2.18625 1.61875 -3.3125 1.9375 C-5.55407994 2.58337897 -7.7869351 3.2623117 -10 4 C-10 5.98 -10 7.96 -10 10 C-10.33 10 -10.66 10 -11 10 C-11.36658354 3.52369077 -11.36658354 3.52369077 -9.6875 1.125 C-6.18268347 -1.21154435 -3.92300817 -0.95424523 0 0 Z " fill="#96928E" transform="translate(95,8)"/>
<path d="M0 0 C0.33 2.64 0.66 5.28 1 8 C-0.65 7.67 -2.3 7.34 -4 7 C-4.1875 4.625 -4.1875 4.625 -4 2 C-1 0 -1 0 0 0 Z " fill="#FA5855" transform="translate(165,10)"/>
<path d="M0 0 C1.65 0.99 3.3 1.98 5 3 C4.67 3.99 4.34 4.98 4 6 C2.35 5.67 0.7 5.34 -1 5 C-0.67 3.35 -0.34 1.7 0 0 Z " fill="#524E4E" transform="translate(20,15)"/>
<path d="M0 0 C2.31 0 4.62 0 7 0 C6.67 1.32 6.34 2.64 6 4 C3.36 4 0.72 4 -2 4 C-2 3.67 -2 3.34 -2 3 C-0.02 3 1.96 3 4 3 C4 2.34 4 1.68 4 1 C2.68 0.67 1.36 0.34 0 0 Z " fill="#F39E8F" transform="translate(224,17)"/>
<path d="M0 0 C1.98 0 3.96 0 6 0 C6 0.99 6 1.98 6 3 C4.02 3 2.04 3 0 3 C0 2.01 0 1.02 0 0 Z " fill="#0B0908" transform="translate(72,22)"/>
</svg>
